# xmcd
#
# Track frame offsets:
#	150
#	11620
#	28510
#	42490
#	53575
#	60207
#	69005
#	79775
#	90245
#	100110
#
# Disc length: 1659 seconds
#
# Revision: 1
# Processed by: cddbd v1.5.2PL0 Copyright (c) Steve Scherf et al.
# Submitted via: audiograbber 1.83.01
#
DISCID=6406790a
DTITLE=Storme Williams - Texas Girl
DYEAR=1994
DGENRE=Country
TTITLE0=What Kind Of Woman Are You
TTITLE1=Back To The Wall
TTITLE2=The Drinking Man's Love Song
TTITLE3=Since I Met You Baby
TTITLE4=Texas Girl
TTITLE5=Man In The Corner Of The Bar
TTITLE6=Is It Wrong (To Love You)
TTITLE7=Thursday's Child Needs Love
TTITLE8=My Cup Of Life
TTITLE9=Break Another Heart
EXTD=
EXTT0=
EXTT1=
EXTT2=
EXTT3=
EXTT4=
EXTT5=
EXTT6=
EXTT7=
EXTT8=
EXTT9=
PLAYORDER=
